<svg xmlns="http://www.w3.org/2000/svg" viewBox="0 0 68 68"><defs><style>.cls-1{fill:#3e4357;}.cls-2{fill:none;stroke:#3e4357;stroke-miterlimit:10;}.cls-3{fill:#fff;}</style></defs><title>Ресурс 6</title><g id="Слой_2" data-name="Слой 2"><g id="OBJECTS"><circle class="cls-1" cx="34" cy="34" r="26.25"/><circle class="cls-2" cx="34" cy="34" r="33.5"/><circle class="cls-1" cx="63.5" cy="34" r="1.62"/><circle class="cls-1" cx="4.5" cy="34" r="1.62"/><path class="cls-3" d="M48.36,32.44a12.81,12.81,0,0,1-.81,4.64,7.58,7.58,0,0,1-2.29,3.29,5.26,5.26,0,0,1-3.43,1.2,4.33,4.33,0,0,1-2.3-.62,3.58,3.58,0,0,1-1.44-1.65h-.28A6,6,0,0,1,33,41.57a6.49,6.49,0,0,1-4.91-1.87,7.14,7.14,0,0,1-1.79-5.13,7.93,7.93,0,0,1,2.36-6,8.5,8.5,0,0,1,6.15-2.27,21.87,21.87,0,0,1,3.34.29,18.76,18.76,0,0,1,3,.7l-.4,8.6c0,1.63.44,2.44,1.34,2.44s1.34-.55,1.79-1.64a11.72,11.72,0,0,0,.67-4.3,10.35,10.35,0,0,0-1.18-5A8,8,0,0,0,40,24.09,10.19,10.19,0,0,0,35.13,23,12.43,12.43,0,0,0,29,24.41a9.74,9.74,0,0,0-4,4.21A13.85,13.85,0,0,0,23.55,35q0,4.85,2.59,7.44c1.73,1.73,4.23,2.6,7.52,2.6a22.18,22.18,0,0,0,4.09-.42,26.31,26.31,0,0,0,4.4-1.2v3.38a21.25,21.25,0,0,1-8.35,1.6q-6.69,0-10.42-3.52c-2.49-2.35-3.74-5.6-3.74-9.78a16.44,16.44,0,0,1,1.91-7.89A13.81,13.81,0,0,1,27,21.64a16.12,16.12,0,0,1,8.12-2A14.7,14.7,0,0,1,42,21.21a11.21,11.21,0,0,1,4.7,4.5A13.43,13.43,0,0,1,48.36,32.44Zm-18,2.2c0,2.48,1,3.71,3,3.71a2.79,2.79,0,0,0,2.4-1.12,7,7,0,0,0,1-3.63L37,29.72a9.63,9.63,0,0,0-2-.2,4.34,4.34,0,0,0-3.42,1.38A5.43,5.43,0,0,0,30.35,34.64Z"/></g></g></svg>