<svg xmlns="http://www.w3.org/2000/svg" viewBox="0 0 68 68"><defs><style>.cls-1{fill:#3e4357;}.cls-2{fill:none;stroke:#3e4357;stroke-miterlimit:10;}.cls-3{fill:#fff;}</style></defs><title>Ресурс 5</title><g id="Слой_2" data-name="Слой 2"><g id="OBJECTS"><circle class="cls-1" cx="34" cy="34" r="26.25"/><circle class="cls-2" cx="34" cy="34" r="33.5"/><circle class="cls-1" cx="63.5" cy="34" r="1.62"/><circle class="cls-1" cx="4.5" cy="34" r="1.62"/><path class="cls-3" d="M47.06,23.94H20.94a2.26,2.26,0,0,0-2.26,2.25V41.81a2.26,2.26,0,0,0,2.26,2.25H47.06a2.26,2.26,0,0,0,2.26-2.25V26.19A2.26,2.26,0,0,0,47.06,23.94Zm.44,2.6L34.29,33.89A.58.58,0,0,1,34,34H34a.58.58,0,0,1-.26-.06L20.5,26.54a.52.52,0,0,1,.5-.91l13,7.22,13-7.22a.52.52,0,0,1,.5.91Z"/></g></g></svg>